<?xml version="1.0" encoding="UTF-8" standalone="no"?>
<!DOCTYPE svg PUBLIC "-//W3C//DTD SVG 1.1//EN" "http://www.w3.org/Graphics/SVG/1.1/DTD/svg11.dtd">
<svg width="100%" height="100%" viewBox="0 0 1505 1000" version="1.1" xmlns="http://www.w3.org/2000/svg" xmlns:xlink="http://www.w3.org/1999/xlink" xml:space="preserve" xmlns:serif="http://www.serif.com/" style="fill-rule:evenodd;clip-rule:evenodd;stroke-linejoin:round;stroke-miterlimit:2;">
    <g transform="matrix(1,0,0,1,-1000,-1000)">
        <path d="M2080,1000C1956.61,1000 1860.15,1092.94 1772.84,1210.99C1652.85,1058.21 1552.5,1000 1432.41,1000C1187.59,1000 1000,1318.62 1000,1655.86C1000,1866.9 1102.1,2000 1273.1,2000C1396.18,2000 1484.7,1941.97 1642.07,1666.9C1642.07,1666.9 1707.67,1551.06 1752.79,1471.26C1768.61,1496.79 1785.26,1524.3 1802.76,1553.79L1876.55,1677.93C2020.3,1918.48 2100.39,2000 2245.52,2000C2412.11,2000 2504.83,1865.08 2504.83,1649.65C2504.83,1296.55 2313.01,1000 2080,1000ZM1522.07,1592.41C1394.48,1792.41 1350.35,1837.24 1279.31,1837.24C1206.21,1837.24 1162.76,1773.06 1162.76,1658.62C1162.76,1413.79 1284.83,1163.45 1430.35,1163.45C1509.15,1163.45 1575,1208.96 1675.87,1353.36C1580.09,1500.27 1522.07,1592.41 1522.07,1592.41ZM2003.6,1567.24L1915.37,1420.09C1891.49,1381.26 1868.54,1345.51 1846.53,1312.86C1926.05,1190.12 1991.64,1128.97 2069.66,1128.97C2231.72,1128.97 2361.38,1367.59 2361.38,1660.69C2361.38,1772.41 2324.79,1837.24 2248.97,1837.24C2176.3,1837.24 2141.58,1789.25 2003.6,1567.24Z" style="fill:white;fill-rule:nonzero;"/>
    </g>
</svg>
